PathFileType	4	(X/Y/Z)	Patient4_TMGait_0pt4_03_right_22.trc.trc
DataRate	CameraRate	NumFrames	NumMarkers	Units	OrigDataRate	OrigDataStartFrame	OrigNumFrames
74.468085106383	74.468085106383	4	33	mm	74.468085106383	106	       141
Frame#	Time	Sacral			L.Shoulder			Chest			R.Shoulder			Neck			R.ASIS			L.ASIS			R.Thigh.Superior			R.Thigh.Lateral			R.Thigh.Inferior			R.Patella			L.Thigh.Superior			L.Thigh.Lateral			L.Thigh.Inferior			L.Patella			L.Shank.Superior			L.Shank.Lateral			L.Shank.Inferior			R.Shank.Superior			R.Shank.Lateral			R.Shank.Inferior			R.Heel			R.Midfoot.Superior			R.Midfoot.Lateral			R.Toe			L.Heel			L.Midfoot.Lateral			L.Midfoot.Superior			L.Toe			L.Elbow			L.Wrist			R.Elbow			R.Wrist			
		X1	Y1	Z1	X2	Y2	Z2	X3	Y3	Z3	X4	Y4	Z4	X5	Y5	Z5	X6	Y6	Z6	X7	Y7	Z7	X8	Y8	Z8	X9	Y9	Z9	X10	Y10	Z10	X11	Y11	Z11	X12	Y12	Z12	X13	Y13	Z13	X14	Y14	Z14	X15	Y15	Z15	X16	Y16	Z16	X17	Y17	Z17	X18	Y18	Z18	X19	Y19	Z19	X20	Y20	Z20	X21	Y21	Z21	X22	Y22	Z22	X23	Y23	Z23	X24	Y24	Z24	X25	Y25	Z25	X26	Y26	Z26	X27	Y27	Z27	X28	Y28	Z28	X29	Y29	Z29	X30	Y30	Z30	X31	Y31	Z31	X32	Y32	Z32	X33	Y33	Z33	

106	29.520000000000	860.789841437607	1017.572030719226	425.161205711230	1077.726984914322	1425.851317338160	217.703012686574	1169.040090900820	1364.022896957406	387.322340538974	1082.858871284723	1451.488566516761	553.265000730756	1056.624738388710	1497.735556447871	378.106202826645	1085.844049075794	956.367397932628	548.869382267527	1079.194654047695	959.526292206616	275.442269395318	1171.359561339967	789.947317495604	524.458704750387	1137.364759128591	671.626120680948	605.571322909903	1226.004536852140	632.950895302642	526.330127606227	1254.071048682216	529.865801932266	554.449512017077	1120.423207293979	748.546454380780	308.131091198132	1028.034311743744	635.197280546282	249.252760623761	1110.938161962627	556.483081884025	312.362106718452	1108.916018690011	486.748982388609	322.203667348169	1078.816539075607	415.491456994833	314.830117054060	983.783731709603	304.124054061922	269.184843869694	1032.712367449125	191.422565188800	338.021714955614	1195.561435780345	445.234256677810	565.136567218322	1089.012807643005	377.269792050323	626.815692654221	1105.110418934422	266.511265863634	582.405640413695	929.880875016825	155.054152562734	555.765407669365	1106.214035382175	140.801738326068	602.377821128986	999.797708014022	114.238647901718	632.588234765572	1194.659263811361	46.619378780231	632.490454119839	901.722186646159	38.908114753306	387.576563371839	969.939694942273	35.727243646126	301.905707198678	1055.339032968858	96.201568254980	324.140597300070	1181.638300910647	41.580671759515	285.218560657321	1086.356490906613	1076.879388572988	91.903865132365	1236.381923105610	860.885836439850	114.657216589943	1003.732954784266	1121.996873861718	696.875793828314	1061.831182046950	870.841675364774	740.563941350194	
107	29.533428571429	859.205857114579	1018.245561042630	423.084163076439	1079.144036026640	1426.198710187885	217.835530481438	1168.632486017655	1363.928400852627	388.279231811397	1081.054817435087	1451.495542303221	553.436168987372	1056.473353459811	1497.973951134969	378.232133807006	1083.174979684911	956.633817129744	548.963252552110	1079.011198460190	959.871129494947	275.184135980908	1168.307862708737	790.306434487048	524.964613996984	1133.612345940257	671.894161373098	605.775853371244	1222.508463355346	633.276695439836	527.002870029649	1251.581330928947	532.203074064963	554.985455911506	1117.859098783858	747.964861626955	308.408614155297	1024.656469239768	635.337540501087	248.662734159828	1106.363048445335	556.003412919428	312.306366712217	1103.686343637102	486.420652489626	322.071309561430	1073.619494963713	415.385019005002	314.564467424340	978.583066369311	304.065218008590	268.863677015509	1027.346388576239	191.387526876780	337.861535067058	1197.088792005671	446.342214644666	565.527155933712	1094.945286799606	372.627435369394	627.455969673993	1117.204622252205	262.986558567356	582.741918631494	948.816072858322	141.431284053830	556.248728776703	1125.670894250572	137.774715325541	602.572345002681	1021.176006112221	104.994645509439	633.022730005765	1219.503323807831	49.310066217976	632.552248263581	896.324031505017	38.900863609968	387.540663904754	964.532501370371	35.699366559744	301.868431195521	1049.931421851111	96.181016250809	324.100779568007	1176.243480846500	41.545562723568	285.210291252665	1088.929156429741	1077.574416690670	91.497532732940	1241.188454972018	863.442839100251	117.013945161773	999.456144650221	1122.229588124938	696.123041477910	1055.005527638639	870.862687693869	741.479755847269	
108	29.546857142857	857.747584724327	1018.882332108208	421.186918512215	1080.580726267552	1426.450209996894	218.149984125546	1168.313967010249	1363.741400213248	389.362516718493	1079.432227318232	1451.442292888173	553.759947855160	1056.401558146524	1498.151042661028	378.508342995473	1080.609990491674	956.754479187324	549.186671587305	1078.844334620251	960.117377409438	275.034014704651	1164.855964439119	790.045930422672	525.668926101139	1128.987920065732	671.624035672137	606.086228011200	1218.056776736197	632.818724429253	527.794732658794	1247.912055167943	533.964110812929	555.414360308331	1115.250706608001	747.344762020619	308.748945068010	1021.255826121220	635.468366957474	248.123632628798	1101.751550104658	555.514603504156	312.293430597577	1098.416545706068	486.091884215837	321.954398670038	1068.407742346895	415.283732545150	314.317977936185	973.363792736455	304.012774613631	268.555532152427	1021.971557677584	191.353032490914	337.705203978692	1197.802372514634	447.151050082931	565.897805180984	1100.821604437835	367.685331339531	628.400146708508	1129.362528260455	259.591934667004	583.246208273205	968.776100930650	127.926539832189	557.283990295540	1145.605431624269	135.205414474389	602.852459616829	1043.571482335347	96.148362745842	633.802053558557	1244.717020635670	52.965287854051	632.462830289242	890.937314787012	38.889090932003	387.502537563231	959.123303032235	35.669127860989	301.831349741187	1044.521321090082	96.158936758962	324.057464548443	1170.845461553313	41.509553081024	285.206901571661	1091.265155172858	1078.139312151931	91.346012633448	1245.618989933641	865.843317410906	119.540048995642	995.491404851454	1122.378072096338	695.475279078996	1049.006981076715	870.850451256852	742.093147179663	
109	29.560285714286	856.434705630602	1019.454341573519	419.499770449762	1081.996543847450	1426.606675874669	218.647364010883	1168.069366969802	1363.465005942276	390.560424554012	1077.984020798444	1451.316068469419	554.238776180785	1056.388481724408	1498.262616879210	378.937497544777	1078.191048905706	956.730629021118	549.530411874023	1078.655400347334	960.226132540198	275.000182992364	1161.046920853354	789.148948161002	526.548612294463	1123.576454415875	670.839462939623	606.499426939293	1212.710970294101	631.591555169163	528.657161631331	1243.117734344334	535.125173578425	555.677948373001	1112.614499289613	746.680419186339	309.139313677129	1017.864744394156	635.579773897966	247.641185725944	1097.156850907690	555.009069617990	312.316163739009	1093.167519606122	485.754209798013	321.848927088876	1063.231617036800	415.175484509877	314.093316998533	968.156627988772	303.967703070096	268.266093250805	1016.603629030479	191.311730432268	337.554406867086	1197.684435151824	447.688209628613	566.217728724329	1106.533657876106	362.617051671739	629.586722260906	1141.344460069897	256.498914097870	583.862741821882	989.408602435862	114.934301580501	558.778802759557	1165.648552075289	133.275379803822	603.160674498181	1066.567332217430	87.995338642923	634.833545221994	1269.810951299412	57.649857303740	632.146898763661	885.558344818181	38.876222708673	387.462845955916	953.711887454519	35.637233049249	301.795077891437	1039.109721224191	96.134655289394	324.011319427801	1165.444628055871	41.470569319192	285.207276986382	1093.369612489195	1078.570936458878	91.452555366964	1249.668450112466	868.061837129854	122.206304985719	991.873047074282	1122.426775922306	694.953158124492	1043.858241911995	870.761875206896	742.425833145378	
